<svg xmlns="http://www.w3.org/2000/svg" xmlns:xlink="http://www.w3.org/1999/xlink" width="500" zoomAndPan="magnify" viewBox="0 0 375 374.999991" height="500" preserveAspectRatio="xMidYMid meet" version="1.0"><defs><filter x="0%" y="0%" width="100%" height="100%" id="07c24e227f"><feColorMatrix values="0 0 0 0 1 0 0 0 0 1 0 0 0 0 1 0 0 0 1 0" color-interpolation-filters="sRGB"/></filter><mask id="e4dbe29ebf"><g filter="url(#07c24e227f)"><rect x="-37.5" width="450" fill="#000000" y="-37.499999" height="449.999989" fill-opacity="0.46"/></g></mask><clipPath id="2fa510c689"><path d="M 0 0 L 375 0 L 375 375 L 0 375 Z M 0 0 " clip-rule="nonzero"/></clipPath><clipPath id="ee14c74bba"><path d="M -370.949219 174.550781 L -62.910156 -105.332031 L 396.277344 400.046875 L 88.234375 679.929688 Z M -370.949219 174.550781 " clip-rule="nonzero"/></clipPath><clipPath id="886d2dd8fa"><path d="M -358.027344 162.8125 L -75.828125 -93.59375 C -72.402344 -96.707031 -67.878906 -98.332031 -63.253906 -98.109375 C -58.628906 -97.886719 -54.28125 -95.839844 -51.167969 -92.410156 L 383.886719 386.40625 C 387 389.835938 388.621094 394.359375 388.402344 398.980469 C 388.179688 403.605469 386.128906 407.953125 382.703125 411.066406 L 100.503906 667.472656 C 97.078125 670.585938 92.554688 672.210938 87.929688 671.988281 C 83.304688 671.769531 78.957031 669.71875 75.84375 666.292969 L -359.207031 187.472656 C -362.320312 184.046875 -363.945312 179.523438 -363.726562 174.898438 C -363.503906 170.273438 -361.453125 165.925781 -358.027344 162.8125 Z M -358.027344 162.8125 " clip-rule="nonzero"/></clipPath><clipPath id="b3c8810b9b"><rect x="0" width="375" y="0" height="375"/></clipPath></defs><g mask="url(#e4dbe29ebf)"><g transform="matrix(1, 0, 0, 1, 0, 0)"><g clip-path="url(#b3c8810b9b)"><g clip-path="url(#2fa510c689)"><g clip-path="url(#ee14c74bba)"><g clip-path="url(#886d2dd8fa)"><path fill="#f95703" d="M -370.949219 174.550781 L -62.910156 -105.332031 L 395.183594 398.84375 L 87.144531 678.726562 Z M -370.949219 174.550781 " fill-opacity="1" fill-rule="nonzero"/></g></g></g></g></g></g></svg>